<svg version="1.1"  xmlns="http://www.w3.org/2000/svg" xmlns:xlink="http://www.w3.org/1999/xlink" x="0px"
     y="0px" width="148.078px" height="8px" viewBox="0 0 148.078 8" enable-background="new 0 0 148.078 8" xml:space="preserve">
<g>
	<path d="M147.755,3.521c-0.064-0.038-0.126-0.07-0.186-0.098c0.084,0.138,0.051,0.316-0.071,0.445
		C147.702,3.805,147.867,3.702,147.755,3.521z"/>
    <path fill="#25b1ba" d="M147.88,4.04c-0.098-0.056-0.231-0.109-0.393-0.159l0.012-0.012l-0.025,0.008c-0.066-0.02-0.136-0.04-0.213-0.06
		l-0.063-0.015c0.153-0.05,0.27-0.131,0.183-0.268c-0.331-0.197-0.604-0.196-0.667-0.218c-0.141-0.022-0.144-0.02-0.224-0.031
		l-0.111-0.012c-0.218-0.02-0.303-0.024-0.413-0.032l-0.282-0.016l-0.053-0.003c-0.066-0.001-0.131-0.001-0.196-0.002
		c-0.666-0.088-1.331-0.168-1.995-0.241l-0.018-0.128c0.001,0,0.001,0,0.002,0l0.049-0.083c-0.1-0.015-0.2-0.03-0.3-0.045
		l0.23-0.007l-0.002-0.011l-0.291,0.009c-0.241-0.036-0.482-0.071-0.723-0.105l0.059-0.002l0.231,0.025
		c-0.063-0.009-0.125-0.017-0.188-0.026l0.894-0.03l-0.031-0.217l-2.141,0.071c-0.629-0.083-1.258-0.161-1.886-0.234
		c0.127-0.018,0.257-0.039,0.398-0.063c0.176-0.031,0.378-0.073,0.548-0.118c0.176-0.05,0.42-0.109,0.595-0.249
		c0.082-0.069,0.099-0.163-0.002-0.24c-0.097-0.078-0.267-0.133-0.413-0.169c-0.3-0.071-0.538-0.094-0.739-0.116
		c-0.403-0.039-0.714-0.052-1.024-0.065c-0.607-0.023-1.16-0.03-1.71-0.035c-0.548-0.004-1.086-0.004-1.621-0.001
		c-1.069,0.005-2.125,0.019-3.177,0.036c-0.805,0.013-1.605,0.03-2.406,0.046c-1.691-0.132-3.442-0.251-5.255-0.354
		c4.969-0.226,9.939-0.454,14.908-0.683c-5.049,0.226-10.098,0.448-15.147,0.67c-0.513-0.029-1.029-0.057-1.551-0.084
		C128.271,0.515,133.813,0.26,139.355,0l-17.173,0.744c-1.254-0.062-2.53-0.12-3.835-0.17c-5.845-0.227-12.177-0.344-18.883-0.37
		c-7.757-0.03-16.017,0.062-24.608,0.251C63.314,0.613,51.792,0.901,40.285,1.277c-5.753,0.188-11.503,0.4-17.249,0.633
		C17.285,2.145,11.556,2.396,5.79,2.686c7.39-0.347,14.741-0.637,22.118-0.901c7.372-0.261,14.748-0.489,22.131-0.677
		c-7.379,0.22-14.751,0.478-22.117,0.77c-7.37,0.295-14.717,0.616-22.095,0.994l0.047,0.238c5.346-0.267,10.668-0.5,16.006-0.72
		l-2.236,0.144c-4.587,0.198-9.162,0.407-13.756,0.642l0.002,0.011C9.795,3,13.681,2.834,17.578,2.675
		c-0.833,0.059-1.665,0.123-2.497,0.19c-3.056,0.143-6.104,0.29-9.166,0.451l0.043,0.216l1.99-0.103l0.067,0.28
		C7.936,3.731,7.855,3.755,7.767,3.786C7.684,3.816,7.591,3.856,7.512,3.9C7.432,3.948,7.32,4.005,7.251,4.143
		C7.229,4.19,7.225,4.249,7.243,4.307L4.321,4.377L2.671,4.42l-0.84,0.023L1.338,4.459L1.29,4.461L1.247,4.463
		C0.771,4.545,2.236,4.283,0,4.657c0.206,0.435,0.387,0.815,0.548,1.149C0.53,5.908,0.582,6.035,0.733,6.191
		c1.815,3.755,0.354,0.298,0.892,1.526l0.044-0.001l0.045-0.001l0.123-0.004l0.215-0.007l70.72-2.231l10.676-0.342
		c2.537-0.028,5.052-0.053,7.532-0.074c11.07-0.09,21.542-0.11,31.019,0.014c4.734,0.064,9.229,0.163,13.355,0.34
		c0.677,0.029,1.341,0.062,1.997,0.096c1.063,0.154,2.123,0.31,3.176,0.47l0.93-0.191c0.729,0.065,1.419,0.139,1.997,0.222
		c0.001,0.001,0.003,0.002,0.004,0.003c0.026,0.024,0.037,0.042,0.037,0.045c0,0.003,0.001,0.005,0,0.008l0.154,0.014
		c0.006-0.014,0.006-0.027,0.001-0.042c0.034,0.005,0.069,0.011,0.102,0.016c0,0.012,0,0.023-0.005,0.034l0.344,0.031
		c0.001-0.002,0.001-0.003,0.001-0.005c0.1,0.02,0.188,0.039,0.253,0.056c0.08,0.021,0.125,0.038,0.128,0.04
		c0.004,0.003,0.008,0.005,0.008,0.008l0.334-0.003c-0.003-0.01-0.008-0.018-0.02-0.027l0.027,0.003
		c0.013-0.025,0.02-0.052,0.027-0.078c0.01,0.003,0.022,0.007,0.031,0.01c0.057,0.019,0.083,0.032,0.106,0.047
		c0.005,0.003,0.008,0.007,0.012,0.01c-0.004,0.009-0.005,0.019-0.01,0.028l0.018,0.002c0.003-0.006,0.003-0.012,0.006-0.019
		c0.006,0.008,0.01,0.015,0.012,0.023l0.74-0.004c-0.015-0.117-0.33-0.221-0.734-0.311c-0.011-0.036-0.024-0.071-0.042-0.104
		c0.025,0.005,0.05,0.009,0.074,0.014c0.254,0.051,0.492,0.109,0.679,0.177c0.187,0.067,0.317,0.145,0.326,0.224
		c0.422,0,0.842,0.001,1.252,0.005c-0.021-0.13-0.22-0.268-0.501-0.377c-0.125-0.049-0.259-0.092-0.395-0.13l0.46,0.004
		c0.078,0.026,0.155,0.053,0.23,0.083c0.147,0.058,0.293,0.131,0.386,0.203c0.095,0.072,0.154,0.147,0.168,0.221l0.037,0.001
		c-0.017-0.091-0.099-0.184-0.237-0.272c-0.141-0.089-0.332-0.169-0.523-0.232l-0.009-0.003l0.151,0.002
		c0.085-0.131-0.123-0.273-0.426-0.39c-0.324-0.121-0.668-0.195-0.994-0.258l-0.296-0.052l0.208-0.039l0.089-0.017l0.211,0.037
		c0.347,0.068,0.72,0.148,1.085,0.285c0.174,0.067,0.309,0.139,0.4,0.214c0.045,0.037,0.074,0.075,0.095,0.113
		c0.017,0.038,0.034,0.076-0.01,0.112l0.038,0.001c0.096-0.178-0.237-0.371-0.696-0.517c-0.375-0.116-0.737-0.19-1.084-0.252
		c0.481-0.09,0.964-0.177,1.452-0.261l0.393-0.091c0.077-0.015,0.101-0.031,0.145-0.047l0.123-0.048
		c0.094-0.032,0.133-0.063,0.178-0.097c0.041-0.034,0.069-0.07,0.078-0.111C148.096,4.213,148.019,4.118,147.88,4.04z
		 M145.782,4.031c-0.011-0.002-0.022-0.004-0.033-0.006l0.025,0C145.776,4.026,145.78,4.028,145.782,4.031z M145.52,3.95
		l0.031,0.002l0.004-0.005c0.011,0.001,0.018,0.002,0.031,0.002l0.075,0.003l0.025,0c0.028,0.019,0.05,0.04,0.074,0.06l-0.074,0
		C145.608,4,145.521,3.99,145.44,3.978c-0.021-0.012-0.038-0.024-0.06-0.036L145.52,3.95z M145.179,3.932l0.058,0.013l0.014,0.004
		l0.014-0.013l0.035,0.002c0.017,0.009,0.033,0.019,0.049,0.028c-0.083-0.012-0.163-0.025-0.249-0.035
		c-0.002-0.001-0.004-0.002-0.005-0.002L145.179,3.932z M144.247,4.102l0.04,0.007l-0.039-0.006
		c0.121,0.014,0.239,0.029,0.346,0.049c0.04,0.008,0.08,0.017,0.112,0.027c-0.019,0.014-0.045,0.025-0.075,0.032l-0.272,0.061
		l-0.711,0.163l-0.346-0.112c0.16-0.038,0.323-0.075,0.485-0.112l0.07,0.002l-0.07-0.002c0.129-0.03,0.257-0.06,0.388-0.089
		c0.007-0.002,0.033-0.003,0.023-0.01c-0.003-0.003-0.008-0.005-0.013-0.007l-0.005-0.002l-0.037-0.012
		C144.177,4.095,144.212,4.098,144.247,4.102z M142.519,4.67l-0.294-0.084l0.108-0.027l0.006,0.001l0.026,0.007l0.317,0.09
		l-0.094,0.019L142.519,4.67z M142.541,5.091l-0.006,0.001l-0.061-0.006l0.03-0.007L142.541,5.091z M142.463,5.066l-0.053,0.014
		l-0.153-0.015l0.122-0.024L142.463,5.066z M141.962,4.516l-0.011-0.003l0.033-0.047l0.187,0.049l-0.06,0.012
		C142.061,4.523,142.012,4.52,141.962,4.516z M142.067,4.536l-0.017,0.003l-0.025-0.007C142.039,4.534,142.053,4.535,142.067,4.536z
		 M142.688,4.159c0.035,0.01,0.071,0.019,0.106,0.029c-0.135-0.003-0.27-0.006-0.405-0.009c-0.032-0.008-0.062-0.017-0.094-0.025
		l-0.075-0.019l0.005-0.007C142.381,4.138,142.536,4.148,142.688,4.159z M142.237,4.112l0.045-0.062l0.096,0.024
		c0.079,0.021,0.156,0.042,0.235,0.064C142.487,4.129,142.363,4.121,142.237,4.112z M142.758,4.164
		c0.065,0.005,0.133,0.008,0.197,0.013l0.253,0.02c-0.12-0.003-0.24-0.005-0.361-0.008C142.817,4.18,142.788,4.172,142.758,4.164z
		 M142.352,4.546l-0.119-0.032l0.024-0.005c0.038,0.011,0.078,0.021,0.116,0.031L142.352,4.546z M142.388,4.545
		c0.011,0.003,0.022,0.007,0.033,0.01l-0.053-0.005L142.388,4.545z M142.27,4.541l-0.12-0.011l0.045-0.009L142.27,4.541z
		 M142.233,4.503l-0.025,0.005l-0.213-0.057l0.007-0.01C142.08,4.461,142.156,4.482,142.233,4.503z M142.107,4.539l0.203,0.018
		l-0.099,0.025l-0.136-0.036L142.107,4.539z M142.425,4.567l0.054,0.005c0.086,0.024,0.172,0.049,0.256,0.074l-0.019,0.004
		C142.62,4.621,142.522,4.594,142.425,4.567z M142.393,4.18c0.135,0.003,0.27,0.005,0.404,0.008c0.139,0.039,0.278,0.08,0.416,0.121
		l-0.21,0.041C142.802,4.291,142.598,4.235,142.393,4.18z M142.836,5.507c0.022,0.008,0.046,0.016,0.068,0.025
		c0.061,0.024,0.119,0.047,0.177,0.071c-0.074-0.008-0.148-0.016-0.223-0.024c-0.044-0.017-0.087-0.034-0.132-0.05L142.836,5.507z
		 M143.029,4.359l0.21-0.041c0.006,0.002,0.013,0.004,0.019,0.006l-0.192,0.046C143.055,4.366,143.042,4.363,143.029,4.359z
		 M143.241,4.305c-0.13-0.04-0.26-0.078-0.392-0.115c0.122,0.003,0.244,0.005,0.367,0.008l0.256,0.02l0.147,0.013L143.241,4.305z
		 M143.466,4.203l0.28,0.007c-0.021,0.005-0.042,0.01-0.063,0.015c-0.01-0.002-0.021-0.004-0.033-0.005l-0.01-0.001L143.466,4.203z
		 M143.512,4.264c-0.076,0.018-0.152,0.035-0.227,0.053c-0.006-0.002-0.012-0.003-0.017-0.005L143.512,4.264z M143.64,4.044
		l0.397,0.035c0.009,0.001,0.017,0.002,0.025,0.003l0.037,0.011l0.065,0.02c-0.141,0.032-0.278,0.065-0.417,0.097l-0.285-0.007
		l-0.006-0.001l-0.639-0.05c-0.044-0.003-0.09-0.006-0.134-0.009c-0.13-0.036-0.26-0.071-0.391-0.105l0.033-0.046
		c0.294,0.006,0.587,0.011,0.881,0.017L143.64,4.044z M142.326,3.697l0.227,0.007c0.02,0.004,0.041,0.009,0.062,0.014
		C142.518,3.71,142.422,3.703,142.326,3.697z M143.386,3.771c-0.219-0.017-0.439-0.031-0.659-0.046
		c-0.027-0.006-0.054-0.013-0.081-0.019l0.399,0.012C143.16,3.735,143.272,3.753,143.386,3.771z M141.879,2.626
		c0.242,0.033,0.485,0.068,0.727,0.104l-1.239,0.038c-0.341-0.031-0.682-0.062-1.024-0.091L141.879,2.626z M139.677,4.82
		c0.001,0,0.003,0.001,0.004,0.001c0.103,0.021,0.199,0.044,0.301,0.066l-0.322-0.021L139.677,4.82z M139.707,3.947
		c0.033,0,0.066,0.001,0.099,0.001c0.069,0.014,0.138,0.027,0.207,0.041l-0.089-0.004l-0.053-0.008
		C139.817,3.966,139.761,3.957,139.707,3.947z M139.987,4.476l-0.169-0.01l0.016-0.039c0.094,0.019,0.187,0.039,0.28,0.058
		C140.072,4.482,140.03,4.479,139.987,4.476z M140.071,4.009c0.018,0.001,0.036,0.002,0.053,0.003c0.05,0.01,0.101,0.02,0.151,0.03
		L140.071,4.009z M140.473,4.842c0.012,0.003,0.024,0.006,0.036,0.008l-0.015,0.003l-0.31-0.021
		c-0.023-0.005-0.044-0.01-0.067-0.015L140.473,4.842z M140.438,4.865l-0.056,0.012c-0.033-0.007-0.065-0.014-0.097-0.022
		L140.438,4.865z M140.473,4.868l0.07,0.005l0.087,0.006c0.08,0.018,0.161,0.036,0.239,0.055l-0.047,0.013l-0.188-0.014
		c-0.075-0.018-0.154-0.034-0.23-0.051L140.473,4.868z M140.528,4.856l0.003-0.001c0.002,0,0.003,0.001,0.005,0.001L140.528,4.856z
		 M140.88,4.936l0.09,0.021l-0.132-0.01L140.88,4.936z M139.23,2.21l0.585,0.066c0.426,0.05,0.851,0.104,1.277,0.159l-0.281,0.009
		c-0.179-0.017-0.357-0.036-0.535-0.053l0.36,0.058l-1.366,0.045L139.221,2.3c0.351,0.03,0.703,0.059,1.054,0.091
		c-0.353-0.056-0.711-0.11-1.072-0.163L139.2,2.215C139.21,2.213,139.22,2.211,139.23,2.21z M124.936,4.726
		c2.408,0.04,4.811,0.093,7.207,0.167c2.26,0.071,4.514,0.161,6.736,0.294l-0.277,0.058c-2.137-0.126-4.311-0.213-6.492-0.284
		c-5.091-0.16-10.225-0.23-15.358-0.27c-3.941-0.029-7.886-0.037-11.832-0.032C111.931,4.642,118.621,4.658,124.936,4.726z
		 M129.981,4.405l-1.592-0.037l2.851,0.045l0.223,0.007c1.467,0.047,2.93,0.101,4.388,0.166l-0.867-0.02
		C133.315,4.499,131.648,4.448,129.981,4.405z M133.572,4.534L131.38,4.49c-1.941-0.061-3.887-0.111-5.835-0.153
		c2.547,0.042,5.097,0.1,7.648,0.183L133.572,4.534z M131.332,4.09l-1.663-0.049l3.413,0.019c0.916,0.032,1.832,0.069,2.749,0.108
		c0.045,0.006,0.09,0.012,0.135,0.019C134.422,4.15,132.878,4.117,131.332,4.09z M133.616,4.065l1.553,0.013
		c0.172,0.023,0.341,0.047,0.511,0.071C134.991,4.118,134.303,4.09,133.616,4.065z M133.369,4.056l-1.095-0.038l2.444,0.05
		L133.369,4.056z M132.542,4.042l0.285,0.01l-3.573-0.022c-1.867-0.05-3.733-0.091-5.6-0.126c2.505,0.022,5.009,0.052,7.514,0.094
		L132.542,4.042z M119.729,3.486l7.226-0.235c0.177,0.013,0.352,0.027,0.527,0.041l-3.559,0.114
		C122.525,3.431,121.127,3.458,119.729,3.486z M119.42,3.446l5.143-0.246l1.152-0.038c0.296,0.02,0.593,0.04,0.886,0.062
		L119.42,3.446z M119.696,3.541l-1.06,0.034c-0.198,0-0.399,0-0.597,0.001l-0.668-0.003l-0.265-0.001l0.864-0.028
		C118.545,3.543,119.121,3.542,119.696,3.541z M135.982,4.085c0.098,0.001,0.197,0.002,0.295,0.003
		c0.012,0.002,0.025,0.004,0.037,0.005C136.203,4.091,136.093,4.088,135.982,4.085z M136.411,4.108
		c0.232,0.034,0.463,0.069,0.69,0.105c-0.135-0.007-0.27-0.012-0.406-0.019c-0.212-0.033-0.426-0.064-0.641-0.095
		C136.173,4.102,136.292,4.105,136.411,4.108z M137.637,4.103c0.156,0.002,0.31,0.004,0.465,0.006c0.08,0.013,0.16,0.026,0.239,0.04
		c-0.174-0.005-0.349-0.01-0.523-0.015C137.757,4.123,137.698,4.113,137.637,4.103z M138.553,4.259
		c-0.07-0.013-0.14-0.026-0.21-0.038c-0.148-0.026-0.297-0.049-0.444-0.074c0.174,0.005,0.347,0.01,0.521,0.015
		c0.206,0.036,0.411,0.073,0.616,0.111L138.553,4.259z M138.367,3.211c-0.037,0-0.074,0.001-0.111,0.001l-0.106-0.018l0.759-0.025
		c0.103,0.012,0.205,0.025,0.308,0.037C138.933,3.209,138.65,3.21,138.367,3.211z M139.2,2.917l-0.065,0.002
		c-0.145-0.017-0.29-0.033-0.436-0.05l0.141-0.005C138.96,2.882,139.08,2.899,139.2,2.917z M138.014,2.754
		c0.085,0.009,0.17,0.018,0.254,0.027c0.156,0.022,0.31,0.046,0.466,0.068l-0.164,0.005c-0.267-0.031-0.533-0.063-0.801-0.092
		L138.014,2.754z M138.021,3.199c0.037,0.005,0.074,0.009,0.111,0.014c-0.128,0.001-0.255,0.002-0.383,0.003
		c-0.02-0.002-0.04-0.005-0.06-0.007L138.021,3.199z M137.629,3.212c0.017,0.002,0.033,0.004,0.05,0.006c-0.014,0-0.028,0-0.042,0
		l-0.032-0.005L137.629,3.212z M138.079,4.105c-0.157-0.002-0.313-0.005-0.469-0.006c-0.416-0.067-0.834-0.132-1.255-0.193
		c0.166,0.002,0.333,0.003,0.499,0.005C137.265,3.973,137.673,4.038,138.079,4.105z M136.747,2.934
		c0.073,0.008,0.147,0.015,0.219,0.022l-0.321,0.002c-0.041-0.006-0.082-0.012-0.123-0.018l0.204-0.007
		C136.733,2.933,136.74,2.934,136.747,2.934z M136.532,2.912c-0.074-0.001-0.147-0.001-0.221-0.002
		c-0.159-0.023-0.318-0.047-0.478-0.069C136.066,2.863,136.299,2.888,136.532,2.912z M136.099,2.954
		c0.019,0.002,0.038,0.004,0.058,0.007l-0.212,0.001c-0.005-0.001-0.011-0.002-0.017-0.002L136.099,2.954z M135.788,2.94
		c-0.045-0.006-0.089-0.012-0.134-0.018c0.061,0.001,0.123,0.001,0.184,0.002c0.034,0.004,0.069,0.008,0.103,0.012L135.788,2.94z
		 M135.187,2.848c0.158,0.018,0.316,0.037,0.473,0.055c-0.053-0.001-0.105-0.001-0.158-0.002c-0.125-0.017-0.25-0.034-0.376-0.051
		L135.187,2.848z M134.843,3.891c0.437,0.057,0.868,0.115,1.292,0.176c0.036,0.005,0.072,0.011,0.108,0.016
		c-0.107-0.001-0.214-0.002-0.321-0.004c-0.47-0.067-0.943-0.13-1.418-0.191C134.617,3.89,134.73,3.89,134.843,3.891z
		 M135.072,4.065c-1.245-0.029-2.489-0.055-3.734-0.077l-1.584-0.047c-1.249-0.034-2.498-0.064-3.748-0.091
		c2.537,0.005,5.076,0.015,7.615,0.033C134.112,3.941,134.596,4.002,135.072,4.065z M131.9,3.579l0.353,0.007
		c0.052,0.006,0.102,0.011,0.154,0.017c-0.121-0.001-0.243-0.001-0.364-0.002c-0.064-0.007-0.127-0.014-0.191-0.02L131.9,3.579z
		 M130.913,3.592l-0.046,0.001c-1.463-0.008-2.926-0.014-4.39-0.018l0.946-0.031c1.04,0.003,2.081,0.006,3.122,0.011
		C130.668,3.568,130.79,3.58,130.913,3.592z M129.98,3.153c0.168,0.014,0.336,0.028,0.502,0.043l-0.179,0.006
		c-0.156-0.015-0.313-0.03-0.47-0.044L129.98,3.153z M128.84,3.059c0.286,0.023,0.57,0.046,0.853,0.07l-0.136,0.004
		c-0.275-0.024-0.551-0.047-0.827-0.071L128.84,3.059z M128.235,3.21c0.172,0.014,0.344,0.027,0.515,0.042l-0.304,0.01
		c-0.165-0.014-0.33-0.029-0.494-0.042L128.235,3.21z M127.615,3.193c-0.284-0.023-0.566-0.044-0.849-0.065l0.301-0.01
		c0.283,0.021,0.565,0.044,0.846,0.066L127.615,3.193z M122.198,0.973c1.324,0.066,2.646,0.138,3.97,0.221
		c0.408,0.026,0.816,0.054,1.225,0.082c-0.096,0.002-0.192,0.005-0.288,0.007c-1.83-0.108-3.659-0.202-5.487-0.283
		C121.811,0.99,122.004,0.982,122.198,0.973z M120.188,0.889c0.575,0.023,1.149,0.046,1.724,0.071
		c-0.195,0.009-0.391,0.017-0.586,0.026c-0.54-0.027-1.08-0.051-1.62-0.075C119.867,0.903,120.027,0.896,120.188,0.889z
		 M120.069,1.473c-0.078,0.002-0.156,0.004-0.234,0.007c-0.129-0.005-0.26-0.011-0.388-0.017l-0.201-0.003l0.421,0.024
		c-2.072,0.062-4.139,0.127-6.202,0.193c-3.449,0.112-6.898,0.229-10.346,0.349c-0.629,0.013-1.259,0.024-1.888,0.038
		c0.225,0.001,0.448,0.004,0.673,0.005c-0.15,0.005-0.3,0.011-0.45,0.016c-0.324-0.001-0.647-0.004-0.97-0.004
		c-2.619,0.06-5.235,0.133-7.85,0.214c1.591-0.07,3.182-0.141,4.773-0.212c1.025-0.003,2.051-0.005,3.076-0.002l0.747-0.017
		l-0.414-0.002c-1.013-0.001-2.027,0.002-3.039,0.005c4.861-0.215,9.722-0.432,14.583-0.65c2.293,0.001,4.589,0.015,6.887,0.044
		l-0.355-0.02l0.556,0.022C119.655,1.466,119.862,1.47,120.069,1.473z M77.836,2.943c3.115-0.136,6.23-0.273,9.344-0.409
		c1.026-0.018,2.051-0.034,3.075-0.048C86.112,2.637,81.97,2.789,77.836,2.943z M78.514,3.273c-0.047,0.002-0.094,0.003-0.141,0.005
		c-0.113,0.001-0.227,0.003-0.34,0.004c0.043-0.002,0.087-0.003,0.13-0.005L78.514,3.273z M72.16,3.093
		c-0.507,0.007-1.015,0.014-1.525,0.021c7.584-0.333,15.168-0.669,22.75-1.009c0.83-0.007,1.661-0.011,2.491-0.015
		C87.973,2.428,80.067,2.762,72.16,3.093z M117.929,0.804c0.515,0.018,1.031,0.037,1.547,0.057l-0.433,0.019
		c-2.688-0.115-5.375-0.203-8.06-0.268C113.296,0.663,115.611,0.725,117.929,0.804z M108.385,1.427
		c1.008-0.006,2.018-0.008,3.027-0.009c-5.056,0.22-10.112,0.44-15.169,0.656c-0.861,0.005-1.723,0.01-2.584,0.019
		C98.568,1.873,103.476,1.65,108.385,1.427z M91.928,1.33l4.455,0.027l-1.696,0.006l-4.001-0.021L91.928,1.33z M80.964,1.349
		c2.211-0.015,4.422-0.023,6.634-0.025L86.437,1.34C78.752,1.357,72.16,1.465,67.388,1.559c-2.73,0.056-5.46,0.119-8.188,0.188
		C64.242,1.61,71.992,1.425,80.964,1.349z M20.797,5.055l3.073-0.051l-0.484,0.021c-0.959,0.016-1.908,0.032-2.849,0.047
		C20.623,5.066,20.71,5.06,20.797,5.055z M16.687,5.123l2.719-0.045c-0.084,0.006-0.168,0.012-0.252,0.018
		c-0.927,0.016-1.846,0.032-2.755,0.047C16.495,5.136,16.591,5.129,16.687,5.123z M16.968,5.606l-1.74,0.066
		c-0.933,0.024-1.867,0.048-2.8,0.073l2.373-0.088C15.523,5.64,16.246,5.623,16.968,5.606z M1.456,5.437L1.444,5.437
		c0.164-0.007,0.24-0.016,0.253-0.023l0.15-0.004l1.627-0.038l3.29-0.068l6.772-0.129l2.65-0.044
		c-0.096,0.007-0.191,0.013-0.287,0.02C11.346,5.231,7.03,5.312,2.99,5.398L1.755,5.427L1.595,5.432L1.506,5.435L1.456,5.437z
		 M1.508,5.999l0.019-0.001l0.001,0C1.529,6.009,1.53,6.022,1.531,6.032L1.52,6.033c0.024,0.019,0.002,0-0.018-0.005
		C1.501,6.004,1.502,5.99,1.508,5.999z M1.522,6.142l0.022,0c0.002,0.013,0.003,0.025,0.005,0.034l-0.015,0
		c0.004,0.083-0.01,0.02-0.02-0.052C1.516,6.13,1.517,6.134,1.522,6.142z M1.481,6.726c0.007,0.004,0.013,0.008,0.021,0.012l0.043,0
		C1.545,6.852,1.54,6.984,1.481,6.726z M14.839,6.335L2.801,6.717L2.002,6.741L1.565,6.753c-0.001-0.006-0.001-0.01-0.002-0.015
		l0.053-0.001L1.66,6.736l0.08-0.002L1.893,6.73l0.603-0.018L4.852,6.64L9.334,6.5l8.005-0.255l16.773-0.546L14.839,6.335z
		 M38.218,4.8l-0.914,0.013l0.746-0.028l0.908-0.013L38.218,4.8z M26.956,3.875c-0.02,0-0.039,0.001-0.059,0.001l12.485-0.57
		c4.892-0.224,9.786-0.433,14.684-0.623c9.796-0.384,19.607-0.698,29.436-0.87l3.891-0.06c-2.813,0.049-5.624,0.112-8.434,0.186
		c-8.308,0.176-16.605,0.444-24.891,0.763c-4.898,0.187-9.794,0.392-14.685,0.613L26.956,3.875z M42.462,3.573
		c2.271-0.118,4.543-0.234,6.815-0.343l0.803-0.033c-2.203,0.114-4.405,0.234-6.607,0.357C43.136,3.561,42.8,3.567,42.462,3.573z
		 M51.937,3.405c-0.218,0.004-0.434,0.007-0.652,0.011c-1.329,0.023-2.669,0.046-4.013,0.07c5.394-0.287,10.794-0.556,16.201-0.798
		c9.249-0.413,18.516-0.758,27.807-0.99c4.909-0.12,9.824-0.211,14.749-0.254L90.065,2.136c-1.301,0.018-2.602,0.039-3.902,0.064
		c1.246-0.022,2.492-0.04,3.738-0.057L65.939,3.181c-1.805,0.027-3.628,0.055-5.466,0.084c6.61-0.283,13.219-0.568,19.827-0.856
		l-0.011-0.033C73.414,2.68,66.539,2.98,59.663,3.278c-2.387,0.038-4.8,0.078-7.239,0.119c4.345-0.216,8.695-0.413,13.049-0.587
		C60.956,2.985,56.444,3.185,51.937,3.405z M52.814,5.981l23.246-0.759c0.916-0.012,1.832-0.024,2.741-0.036L52.814,5.981z
		 M85.176,4.992c-1.026,0.01-2.03,0.021-3.008,0.031l0.864-0.028c1.029-0.012,2.074-0.023,3.132-0.033L85.176,4.992z M88.395,2.901
		c4.499-0.164,8.999-0.324,13.499-0.48c0.009,0,0.017,0,0.025,0c-4.443,0.156-8.885,0.315-13.326,0.478
		C88.528,2.9,88.462,2.9,88.395,2.901z M132.647,5.212c-4.908-0.166-9.93-0.244-14.883-0.29c-9.914-0.087-19.586-0.04-28.052,0.028
		c-0.272,0.002-0.539,0.005-0.809,0.007l0.949-0.03c4.175-0.036,8.505-0.064,12.865-0.076c8.475-0.022,17.067,0.011,24.784,0.177
		c3.721,0.082,7.241,0.194,10.387,0.367l-0.184,0.039C136.05,5.342,134.355,5.272,132.647,5.212z M138.625,5.487l-0.899-0.053
		l0.185-0.039l0.318,0.017l0.585,0.035L138.625,5.487z M139.521,5.3l-0.892-0.054l0.278-0.058l0.828,0.05l0.062,0.004L139.521,5.3z
		 M139.831,5.564l-0.016-0.001l0.181-0.038l0.303,0.022l-0.182,0.038L139.831,5.564z M140.775,5.635l-0.57-0.043l0.184-0.038
		l0.566,0.044L140.775,5.635z M140.691,5.382l0.27-0.055l0.289,0.023c0.001,0.001,0.002,0.001,0.003,0.002l-0.266,0.054
		L140.691,5.382z M141.081,5.413l0.21-0.043c0.048,0.024,0.094,0.048,0.141,0.072L141.081,5.413z M141.479,2.779l1.195-0.039
		c0.123,0.018,0.245,0.036,0.367,0.055l-1.045,0.033C141.823,2.811,141.651,2.795,141.479,2.779z M143.095,5.863
		c-0.42-0.052-0.867-0.098-1.324-0.141l0.179-0.037l0.711,0.072c0.162,0.018,0.32,0.036,0.475,0.055
		c0.014,0.007,0.03,0.013,0.043,0.02c0.036,0.018,0.069,0.036,0.101,0.054C143.218,5.879,143.158,5.87,143.095,5.863z
		 M143.084,4.375l0.192-0.046c0.117,0.036,0.234,0.073,0.35,0.112l-0.191,0.045C143.319,4.448,143.202,4.41,143.084,4.375z
		 M143.545,5.923c-0.004-0.003-0.007-0.007-0.012-0.01c-0.027-0.02-0.059-0.041-0.092-0.061c0.052,0.007,0.106,0.013,0.156,0.02
		c0.035,0.025,0.065,0.048,0.088,0.071C143.639,5.936,143.593,5.929,143.545,5.923z M143.778,5.687
		c-0.061-0.037-0.125-0.073-0.194-0.107c0.087,0.011,0.174,0.022,0.261,0.033c0.05,0.028,0.102,0.056,0.146,0.087
		c0.009,0.006,0.017,0.013,0.026,0.02C143.938,5.709,143.858,5.698,143.778,5.687z M144.106,6.01
		c-0.005-0.022-0.013-0.043-0.026-0.064c0.056,0.009,0.11,0.019,0.163,0.029c0.008,0.021,0.011,0.043,0.011,0.065
		C144.205,6.029,144.159,6.02,144.106,6.01z M144.075,5.269l-0.009-0.006l0.146-0.028c0.035,0.022,0.069,0.045,0.099,0.069
		C144.233,5.292,144.155,5.28,144.075,5.269z M144.188,4.766l-0.074-0.031l0.145,0.017L144.188,4.766z M144.297,4.777l-0.054,0.012
		l-0.003-0.001L144.297,4.777z M144.3,4.745l-0.224-0.026l-0.02-0.008l0.195-0.037c0.043,0.018,0.086,0.037,0.129,0.056
		C144.353,4.735,144.326,4.74,144.3,4.745z M145.015,5.894c-0.043-0.009-0.087-0.019-0.131-0.028
		c-0.02-0.004-0.043-0.008-0.063-0.012c-0.007-0.015-0.012-0.03-0.021-0.044c-0.012-0.021-0.027-0.04-0.042-0.06
		c0.073,0.013,0.142,0.026,0.213,0.039C144.987,5.822,145.003,5.857,145.015,5.894z M145.065,5.427
		c-0.009-0.031-0.022-0.062-0.039-0.092c0.07,0.014,0.138,0.028,0.204,0.044c0.009,0.026,0.014,0.051,0.018,0.077
		C145.187,5.446,145.126,5.437,145.065,5.427z M145.569,5.473c0.068,0.023,0.125,0.047,0.169,0.074
		c-0.155-0.031-0.31-0.059-0.465-0.086c-0.004-0.025-0.01-0.051-0.019-0.076C145.368,5.412,145.476,5.441,145.569,5.473z
		 M145.656,4.443c-0.074,0.026-0.14,0.052-0.226,0.076c-0.066,0.019-0.14,0.036-0.214,0.053c-0.272,0.051-0.545,0.101-0.815,0.153
		c-0.042-0.019-0.085-0.038-0.128-0.056l1.292-0.244l0.2-0.037C145.733,4.409,145.696,4.427,145.656,4.443z M146.198,3.918
		l0.099-0.003c-0.015,0.015-0.03,0.032-0.046,0.046c0.035-0.013,0.069-0.029,0.103-0.048l0.042-0.002
		c0.116,0.024,0.221,0.051,0.318,0.078l-0.11,0.007l-0.158,0.007l-0.175,0.005l-0.005,0c-0.009-0.012-0.017-0.024-0.027-0.036
		l0.012-0.011l-0.017,0.006c-0.015-0.016-0.033-0.033-0.052-0.05C146.188,3.919,146.192,3.919,146.198,3.918z M147.123,4.291
		c-0.046,0.042-0.126,0.077-0.222,0.109c-0.114,0.032-0.213,0.065-0.352,0.097c-0.17,0.04-0.37,0.078-0.575,0.116l0.07-0.033
		c0.064-0.027,0.101-0.055,0.142-0.086c0.038-0.03,0.072-0.063,0.099-0.101c0.151-0.033,0.288-0.068,0.363-0.115
		c0.06-0.035,0.063-0.08,0.002-0.12c-0.06-0.041-0.163-0.076-0.278-0.108l-0.093-0.023c-0.002-0.002-0.004-0.005-0.006-0.007
		l0.1-0.002c0.092-0.004,0.125-0.001,0.372-0.019l0.086,0.025c0.117,0.039,0.216,0.08,0.276,0.127
		C147.169,4.199,147.172,4.25,147.123,4.291z M146.339,4.141c-0.007-0.024-0.019-0.049-0.032-0.073
		c0.107,0.03,0.203,0.062,0.252,0.1c0.058,0.042,0.034,0.086-0.042,0.121c-0.053,0.025-0.127,0.046-0.206,0.065
		C146.349,4.285,146.359,4.209,146.339,4.141z"/>
</g>
</svg>